<svg width="0" height="0" class="hidden">
  <symbol viewBox="0 0 13 13" xmlns="http://www.w3.org/2000/svg" id="arrow-right">
    <path d="M5.57 1.582c-.273.273-.246.684 0 .957l3.31 3.117H1.03a.648.648 0 0 0-.656.657v.875c0 .382.273.656.656.656h7.85l-3.31 3.144a.713.713 0 0 0 0 .957l.602.602c.273.246.683.246.93 0l5.332-5.332c.246-.246.246-.656 0-.93L7.102.98c-.247-.246-.657-.246-.93 0l-.602.602z"></path>
  </symbol>
</svg>
<svg width="0" height="0" class="hidden">
  <symbol viewBox="0 0 15 14" xmlns="http://www.w3.org/2000/svg" id="arrow-left">
    <path d="M8.317 12.938c.312-.313.281-.782 0-1.094L4.536 8.25h9a.74.74 0 0 0 .75-.75v-1a.76.76 0 0 0-.75-.75h-9l3.78-3.563c.282-.312.313-.78 0-1.093L7.63.406a.774.774 0 0 0-1.062 0L.504 6.5a.684.684 0 0 0 0 1.031l6.063 6.094c.281.281.75.281 1.062 0l.688-.688z"></path>
  </symbol>
</svg>