<svg width="0" height="0" class="hidden">
  <symbol viewBox="0 0 15 14" xmlns="http://www.w3.org/2000/svg" id="arrow-left">
    <path d="M8.317 12.938c.312-.313.281-.782 0-1.094L4.536 8.25h9a.74.74 0 0 0 .75-.75v-1a.76.76 0 0 0-.75-.75h-9l3.78-3.563c.282-.312.313-.78 0-1.093L7.63.406a.774.774 0 0 0-1.062 0L.504 6.5a.684.684 0 0 0 0 1.031l6.063 6.094c.281.281.75.281 1.062 0l.688-.688z"></path>
  </symbol>
  <symbol viewBox="0 0 14 14" xmlns="http://www.w3.org/2000/svg" id="arrow-right">
    <path d="M5.938 1.094c-.313.312-.282.781 0 1.093l3.78 3.563H.75A.74.74 0 0 0 0 6.5v1c0 .438.313.75.75.75h8.969l-3.781 3.594a.814.814 0 0 0 0 1.094l.687.687c.313.281.781.281 1.063 0l6.093-6.094c.281-.281.281-.75 0-1.062L7.687.406c-.28-.281-.75-.281-1.062 0l-.688.688z"></path>
  </symbol>
</svg>