<svg width="80" height="70" viewBox="0 0 80 70" fill="none" xmlns="http://www.w3.org/2000/svg">
<path d="M72.5 35H60V25C60 19.5312 64.375 15 70 15H71.25C73.2812 15 75 13.4375 75 11.25V3.75C75 1.71875 73.2812 0 71.25 0H70C56.0938 0 45 11.25 45 25V62.5C45 66.7188 48.2812 70 52.5 70H72.5C76.5625 70 80 66.7188 80 62.5V42.5C80 38.4375 76.5625 35 72.5 35ZM27.5 35H15V25C15 19.5312 19.375 15 25 15H26.25C28.2812 15 30 13.4375 30 11.25V3.75C30 1.71875 28.2812 0 26.25 0H25C11.0938 0 0 11.25 0 25V62.5C0 66.7188 3.28125 70 7.5 70H27.5C31.5625 70 35 66.7188 35 62.5V42.5C35 38.4375 31.5625 35 27.5 35Z" fill="#FAAD13"/>
</svg>
