<svg width="0" height="0" class="hidden">
  <symbol viewBox="0 0 15 15" xmlns="http://www.w3.org/2000/svg" id="instagram">
    <path d="M7.333 4.144c-2 0-3.594 1.625-3.594 3.594 0 2 1.594 3.593 3.594 3.593a3.594 3.594 0 0 0 3.594-3.593c0-1.97-1.625-3.594-3.594-3.594zm0 5.937A2.34 2.34 0 0 1 4.99 7.738c0-1.282 1.032-2.313 2.344-2.313a2.307 2.307 0 0 1 2.313 2.313c0 1.312-1.032 2.343-2.313 2.343zm4.563-6.062a.84.84 0 0 0-.844-.844.84.84 0 0 0-.844.844.84.84 0 0 0 .844.844.84.84 0 0 0 .844-.844zm2.375.844c-.063-1.125-.313-2.125-1.125-2.938C12.333 1.113 11.333.863 10.208.8 9.052.738 5.583.738 4.427.8c-1.125.063-2.094.313-2.937 1.125C.677 2.738.427 3.738.365 4.863c-.063 1.156-.063 4.625 0 5.78.062 1.126.312 2.095 1.125 2.938.843.813 1.812 1.063 2.937 1.125 1.156.063 4.625.063 5.781 0 1.125-.062 2.125-.312 2.938-1.125.812-.843 1.062-1.812 1.125-2.937.062-1.156.062-4.625 0-5.781zm-1.5 7c-.219.625-.719 1.093-1.313 1.343-.937.375-3.125.282-4.125.282-1.031 0-3.219.093-4.125-.282a2.37 2.37 0 0 1-1.344-1.343c-.375-.907-.28-3.094-.28-4.125 0-1-.095-3.188.28-4.125A2.41 2.41 0 0 1 3.208 2.3c.906-.375 3.094-.281 4.125-.281 1 0 3.188-.094 4.125.281.594.219 1.063.719 1.313 1.313.375.937.281 3.125.281 4.125 0 1.03.094 3.218-.281 4.125z"></path>
  </symbol>
  <symbol viewBox="0 0 16 17" xmlns="http://www.w3.org/2000/svg" id="google">
    <path d="M15.958 8.925c0-.5-.062-.875-.125-1.281H8.458V10.3h4.375c-.156 1.156-1.312 3.344-4.375 3.344-2.656 0-4.812-2.188-4.812-4.906 0-4.344 5.125-6.344 7.875-3.688l2.125-2.031A7.517 7.517 0 0 0 8.458.988a7.729 7.729 0 0 0-7.75 7.75 7.709 7.709 0 0 0 7.75 7.75c4.469 0 7.5-3.125 7.5-7.563z"></path>
  </symbol>
  <symbol viewBox="0 0 15 15" xmlns="http://www.w3.org/2000/svg" id="linked">
    <path d="M13.333.738H1.302c-.531 0-.969.468-.969 1.03v11.97c0 .562.438 1 .969 1h12.031c.531 0 1-.438 1-1V1.768c0-.562-.469-1.03-1-1.03zm-8.781 12H2.49V6.08h2.062v6.657zM3.521 5.144c-.688 0-1.219-.531-1.219-1.188a1.22 1.22 0 0 1 1.219-1.218c.656 0 1.187.562 1.187 1.218 0 .657-.531 1.188-1.187 1.188zm8.812 7.594H10.24v-3.25c0-.75 0-1.75-1.062-1.75-1.094 0-1.25.843-1.25 1.718v3.282H5.864V6.08h1.97v.907h.03c.282-.532.97-1.094 1.97-1.094 2.093 0 2.5 1.406 2.5 3.187v3.657z"></path>
  </symbol>
  <symbol viewBox="0 0 17 14" xmlns="http://www.w3.org/2000/svg" id="twitter">
    <path d="M14.677 3.488A6.95 6.95 0 0 0 16.302 1.8a6.15 6.15 0 0 1-1.875.5A3.206 3.206 0 0 0 15.865.488a6.93 6.93 0 0 1-2.063.812A3.281 3.281 0 0 0 11.396.269 3.28 3.28 0 0 0 8.114 3.55c0 .25.032.5.094.75A9.52 9.52 0 0 1 1.427.863 3.192 3.192 0 0 0 .99 2.519a3.23 3.23 0 0 0 1.468 2.719c-.531-.032-1.062-.157-1.5-.407v.032A3.285 3.285 0 0 0 3.583 8.08c-.25.063-.562.125-.844.125-.218 0-.406-.03-.624-.062a3.265 3.265 0 0 0 3.062 2.281 6.597 6.597 0 0 1-4.063 1.406c-.28 0-.53-.031-.78-.062 1.437.937 3.155 1.469 5.03 1.469 6.032 0 9.313-4.97 9.313-9.313v-.437z"></path>
  </symbol>
</svg>