<svg width="1440" height="338" viewBox="0 0 1440 338" fill="none" xmlns="http://www.w3.org/2000/svg">
<rect width="1440" height="338" fill="#1565D8"/>
<mask id="mask0" mask-type="alpha" maskUnits="userSpaceOnUse" x="0" y="0" width="1440" height="338">
<rect width="1440" height="338" fill="white"/>
</mask>
<g mask="url(#mask0)">
<path opacity="0.2" fill-rule="evenodd" clip-rule="evenodd" d="M1486 1163C1813.5 1163 2079 897.505 2079 570C2079 242.495 1813.5 -23 1486 -23C1158.5 -23 893 242.495 893 570C893 897.505 1158.5 1163 1486 1163ZM1486 963C1268.95 963 1093 787.048 1093 570C1093 352.952 1268.95 177 1486 177C1703.05 177 1879 352.952 1879 570C1879 787.048 1703.05 963 1486 963Z" fill="url(#paint0_linear)"/>
<path opacity="0.2" fill-rule="evenodd" clip-rule="evenodd" d="M-19 368C308.505 368 574 102.505 574 -225C574 -552.505 308.505 -818 -19 -818C-346.505 -818 -612 -552.505 -612 -225C-612 102.505 -346.505 368 -19 368ZM-19 168C-236.048 168 -412 -7.95209 -412 -225C-412 -442.048 -236.048 -618 -19 -618C198.048 -618 374 -442.048 374 -225C374 -7.95209 198.048 168 -19 168Z" fill="url(#paint1_linear)"/>
</g>
<defs>
<linearGradient id="paint0_linear" x1="1744.46" y1="145.851" x2="896.162" y2="145.851" gradientUnits="userSpaceOnUse">
<stop stop-color="white"/>
<stop offset="1" stop-color="white" stop-opacity="0.01"/>
</linearGradient>
<linearGradient id="paint1_linear" x1="574" y1="-816.419" x2="-608.838" y2="-816.419" gradientUnits="userSpaceOnUse">
<stop stop-color="white" stop-opacity="0.01"/>
<stop offset="1" stop-color="white"/>
</linearGradient>
</defs>
</svg>
